<?xml version="1.0" standalone="no"?>
<!DOCTYPE svg PUBLIC "-//W3C//DTD SVG 20010904//EN"
 "http://www.w3.org/TR/2001/REC-SVG-20010904/DTD/svg10.dtd">
<svg version="1.0" xmlns="http://www.w3.org/2000/svg"
 width="640.000000pt" height="805.000000pt" viewBox="0 0 640.000000 805.000000"
 preserveAspectRatio="xMidYMid meet">
<metadata>
Created by potrace 1.16, written by Peter Selinger 2001-2019
</metadata>
<g transform="translate(0.000000,805.000000) scale(0.100000,-0.100000)"
fill="#000000" stroke="none">
<path d="M2035 7909 c-92 -4 -167 -14 -193 -23 -24 -9 -85 -23 -135 -31 -50
-9 -114 -27 -142 -40 -27 -13 -70 -29 -95 -35 -25 -7 -56 -20 -70 -30 -14 -9
-49 -25 -77 -34 -29 -10 -56 -22 -59 -28 -3 -5 -27 -19 -53 -30 -25 -10 -55
-28 -66 -38 -11 -10 -34 -26 -51 -37 -64 -38 -130 -82 -146 -97 -9 -8 -29 -23
-45 -33 -35 -22 -303 -289 -303 -301 0 -5 -12 -19 -26 -33 -14 -13 -33 -37
-41 -54 -9 -16 -29 -45 -44 -63 -16 -18 -29 -39 -29 -46 0 -8 -7 -20 -17 -27
-9 -8 -28 -42 -44 -75 -15 -34 -32 -64 -37 -68 -6 -3 -18 -30 -28 -59 -9 -28
-25 -63 -35 -77 -9 -14 -25 -54 -34 -88 -8 -35 -24 -80 -35 -100 -10 -20 -24
-66 -29 -102 -6 -36 -18 -90 -26 -120 -37 -135 -39 -170 -40 -657 0 -378 3
-485 13 -495 19 -19 45 2 59 51 6 23 21 53 32 67 12 15 26 45 32 68 6 22 19
50 29 61 10 11 28 41 38 66 11 26 26 50 32 54 6 4 20 26 31 49 23 49 74 130
112 177 14 19 41 53 59 77 131 170 297 340 433 444 17 12 31 26 33 30 2 4 20
17 40 30 20 12 41 28 45 35 4 7 25 22 45 33 20 12 51 31 69 43 67 46 122 78
155 89 18 6 45 20 60 31 14 11 48 27 75 37 26 10 71 27 98 38 96 39 240 80
320 92 44 6 129 20 189 31 103 18 164 19 960 19 724 0 861 -3 921 -16 39 -8
108 -22 155 -30 47 -9 103 -26 125 -39 22 -12 58 -28 80 -35 22 -7 49 -20 60
-30 11 -10 36 -26 55 -35 74 -38 174 -124 256 -222 79 -93 105 -131 135 -191
11 -24 31 -59 45 -79 13 -20 24 -42 24 -50 0 -8 13 -45 29 -81 20 -45 35 -104
45 -180 9 -61 20 -131 26 -155 14 -63 12 -255 -4 -333 -8 -38 -20 -107 -26
-154 -7 -47 -22 -110 -35 -140 -13 -30 -26 -72 -30 -93 -4 -21 -19 -54 -32
-75 -14 -20 -32 -55 -40 -77 -7 -21 -22 -49 -32 -60 -10 -11 -26 -33 -35 -50
-18 -33 -74 -111 -121 -171 -16 -21 -66 -72 -109 -113 -43 -42 -113 -111 -155
-155 -42 -43 -96 -99 -121 -125 -58 -59 -185 -171 -228 -201 -19 -12 -45 -33
-59 -46 -14 -13 -31 -24 -36 -24 -6 0 -20 -9 -32 -20 -11 -11 -52 -30 -90 -44
-39 -13 -90 -32 -115 -42 -40 -16 -86 -18 -425 -21 -209 -2 -400 -8 -425 -13
-78 -15 -176 -57 -235 -101 -93 -70 -143 -145 -201 -301 -19 -50 -22 -731 -3
-754 10 -13 113 -14 788 -12 l776 3 135 33 c74 19 158 44 185 57 28 12 65 26
84 30 34 7 173 76 201 99 8 7 36 25 62 40 27 15 48 30 48 34 0 4 15 16 33 27
17 10 42 28 54 39 12 12 56 53 98 91 157 145 685 673 751 752 108 127 130 156
146 188 9 17 25 39 37 49 12 11 21 24 21 31 0 7 10 20 21 31 12 10 31 39 42
64 11 25 27 54 37 65 10 11 23 36 29 56 6 20 22 51 36 69 13 18 27 47 30 64 4
17 17 49 30 71 13 22 28 60 34 85 7 25 23 70 36 100 13 30 29 84 35 119 6 35
20 85 30 112 12 29 30 132 45 261 41 334 48 443 35 534 -12 79 -18 131 -39
339 -7 61 -23 146 -36 190 -13 44 -29 109 -36 145 -7 36 -20 81 -30 100 -9 20
-25 62 -34 94 -9 32 -26 73 -36 91 -11 17 -26 55 -34 83 -9 28 -20 54 -26 58
-6 3 -23 34 -38 68 -16 33 -35 67 -44 75 -10 7 -17 19 -17 25 0 13 -78 137
-113 178 -12 14 -38 48 -57 73 -19 26 -61 75 -92 109 -32 33 -58 64 -58 68 0
3 -39 41 -87 83 -136 119 -206 178 -253 210 -19 13 -56 35 -81 49 -25 13 -51
32 -58 40 -8 9 -19 16 -25 16 -7 0 -38 15 -69 34 -31 19 -74 40 -94 47 -21 6
-49 20 -63 29 -14 10 -45 23 -70 30 -25 7 -70 22 -100 35 -30 12 -89 28 -130
35 -41 7 -99 21 -130 32 -36 12 -104 22 -195 28 -166 11 -2023 10 -2240 -1z
M2348 5788 c-31 -4 -81 -14 -110 -22 -29 -8 -82 -20 -118 -26 -36 -6 -83 -20
-105 -32 -21 -11 -63 -29 -91 -39 -29 -11 -58 -27 -65 -35 -7 -9 -23 -20 -34
-24 -83 -32 -289 -230 -472 -456 -145 -179 -151 -185 -1130 -1155 -90 -89 -94
-99 -89 -234 2 -33 3 -860 4 -1837 2 -1752 2 -1777 22 -1788 19 -10 38 2 100
65 45 45 213 210 449 440 403 393 681 674 681 688 0 7 13 31 29 54 18 26 33
67 39 105 7 41 13 419 17 1064 l6 1002 30 148 c16 81 36 158 43 170 8 11 22
45 30 75 9 30 30 74 46 98 17 24 30 50 30 58 0 7 9 22 20 33 12 12 29 35 39
51 35 57 164 191 216 224 28 18 56 40 63 48 7 8 24 18 39 22 14 3 42 17 62 31
19 13 41 24 47 24 6 0 58 13 115 30 l104 30 430 0 c456 1 551 8 617 48 18 11
50 25 70 31 52 17 145 89 234 182 56 58 89 103 116 159 11 25 29 56 39 70 10
14 31 77 48 140 28 108 30 128 32 315 1 110 -2 208 -6 218 -4 10 -19 20 -34
23 -41 8 -1500 10 -1563 2z"/>
</g>
</svg>
